<svg xmlns="http://www.w3.org/2000/svg" xmlns:xlink="http://www.w3.org/1999/xlink" viewBox="0 0 32.1 32.29"><defs><style>.cls-1{isolation:isolate;}.cls-2{fill:url(#linear-gradient);}.cls-3{fill:url(#linear-gradient-2);}.cls-4{fill:url(#linear-gradient-3);}.cls-5{fill:url(#linear-gradient-4);}.cls-6{fill:url(#linear-gradient-5);}.cls-7{fill:url(#linear-gradient-6);}.cls-8{fill:url(#linear-gradient-7);}.cls-9{fill:url(#linear-gradient-8);}.cls-10{fill:url(#linear-gradient-9);}.cls-11,.cls-15,.cls-18{mix-blend-mode:screen;}.cls-11{fill:url(#linear-gradient-10);}.cls-12{fill:url(#linear-gradient-11);}.cls-13{fill:url(#linear-gradient-12);}.cls-14{fill:url(#linear-gradient-13);}.cls-16{fill:url(#linear-gradient-14);}.cls-17{fill:url(#linear-gradient-15);}.cls-18{fill:url(#linear-gradient-16);}.cls-19{fill:url(#linear-gradient-17);}.cls-20{fill:url(#linear-gradient-18);}.cls-21{fill:url(#linear-gradient-19);}.cls-22{fill:url(#linear-gradient-20);}.cls-23{fill:url(#linear-gradient-21);}</style><linearGradient id="linear-gradient" x1="100.79" y1="115.15" x2="100.79" y2="101.19" gradientUnits="userSpaceOnUse"><stop offset="0" stop-color="aqua"/><stop offset="1" stop-color="blue"/></linearGradient><linearGradient id="linear-gradient-2" x1="62.5" y1="112.72" x2="62.5" y2="82.85" gradientTransform="matrix(-1, 0, 0, 1, 170.17, 0)" gradientUnits="userSpaceOnUse"><stop offset="0" stop-color="blue"/><stop offset="1" stop-color="aqua"/></linearGradient><linearGradient id="linear-gradient-3" x1="104.88" y1="97.94" x2="98.81" y2="113.79" gradientTransform="matrix(1, 0, 0, 1, 0, 0)" xlink:href="#linear-gradient-2"/><linearGradient id="linear-gradient-4" x1="103.23" y1="101.63" x2="99.79" y2="110.6" xlink:href="#linear-gradient"/><linearGradient id="linear-gradient-5" x1="101.57" y1="104.73" x2="101.57" y2="94.98" gradientTransform="matrix(1, 0, 0, 1, 0, 0)" xlink:href="#linear-gradient-2"/><linearGradient id="linear-gradient-6" x1="100.47" y1="115.15" x2="100.47" y2="87.97" xlink:href="#linear-gradient"/><linearGradient id="linear-gradient-7" x1="93.15" y1="112.72" x2="93.15" y2="82.85" gradientTransform="matrix(1, 0, 0, 1, 0, 0)" xlink:href="#linear-gradient-2"/><linearGradient id="linear-gradient-8" x1="88.17" y1="99.86" x2="88.17" y2="99.67" gradientUnits="userSpaceOnUse"><stop offset="0" stop-color="#d30"/><stop offset="1" stop-color="#ffac32"/></linearGradient><linearGradient id="linear-gradient-9" x1="99.13" y1="112.72" x2="99.13" y2="94.98" gradientTransform="matrix(1, 0, 0, 1, 0, 0)" xlink:href="#linear-gradient-2"/><linearGradient id="linear-gradient-10" x1="82.98" y1="98.93" x2="91.01" y2="103.86" xlink:href="#linear-gradient"/><linearGradient id="linear-gradient-11" x1="94" y1="97.46" x2="94" y2="82.86" xlink:href="#linear-gradient"/><linearGradient id="linear-gradient-12" x1="92.39" y1="95.59" x2="92.39" y2="95.41" xlink:href="#linear-gradient"/><linearGradient id="linear-gradient-13" x1="90.12" y1="95.59" x2="90.12" y2="85.62" xlink:href="#linear-gradient"/><linearGradient id="linear-gradient-14" x1="3.97" y1="14.91" x2="-0.27" y2="10.91" gradientTransform="matrix(1, 0, 0, 1, 0, 0)" xlink:href="#linear-gradient-2"/><linearGradient id="linear-gradient-15" x1="88.18" y1="97.91" x2="83.95" y2="93.92" gradientTransform="matrix(1, 0, 0, 1, 0, 0)" xlink:href="#linear-gradient-2"/><linearGradient id="linear-gradient-16" x1="406.35" y1="98.93" x2="414.38" y2="103.86" gradientTransform="matrix(-1, 0, 0, 1, 524.19, 0)" xlink:href="#linear-gradient"/><linearGradient id="linear-gradient-17" x1="417.37" y1="97.46" x2="417.37" y2="82.86" gradientTransform="matrix(-1, 0, 0, 1, 524.19, 0)" xlink:href="#linear-gradient"/><linearGradient id="linear-gradient-18" x1="415.76" y1="95.59" x2="415.76" y2="95.41" gradientTransform="matrix(-1, 0, 0, 1, 524.19, 0)" xlink:href="#linear-gradient"/><linearGradient id="linear-gradient-19" x1="413.49" y1="95.59" x2="413.49" y2="85.62" gradientTransform="matrix(-1, 0, 0, 1, 524.19, 0)" xlink:href="#linear-gradient"/><linearGradient id="linear-gradient-20" x1="411.69" y1="97.77" x2="407.46" y2="93.77" gradientTransform="matrix(-1, 0, 0, 1, 439.83, -82.85)" xlink:href="#linear-gradient-2"/><linearGradient id="linear-gradient-21" x1="411.56" y1="97.91" x2="407.32" y2="93.92" gradientTransform="matrix(-1, 0, 0, 1, 524.19, 0)" xlink:href="#linear-gradient-2"/></defs><g class="cls-1"><g id="Layer_1" data-name="Layer 1"><path class="cls-2" d="M101.35,101.19h-4a10.55,10.55,0,0,0,2.43,3.43c3.8,3.85,1,10.53,1,10.53s5.28-4.69,2.72-9.3A20.25,20.25,0,0,1,101.35,101.19Z" transform="translate(-84.36 -82.85)"/><path class="cls-3" d="M98.88,98.57c.19-2.69,3.34-3.59,3.34-3.59s-.1,0-.1.07c-.05.17.79.73.86.9.3.76.59,1.53,1.43,1.53a1.74,1.74,0,0,0,1.52-1.89,2.12,2.12,0,0,0-.54-1.46c.19-.18.4-.36.62-.55,3.77-3.11,2.44-9.89-1.22-10.72a5.2,5.2,0,0,1,3.76,1.36,4.17,4.17,0,0,1,1.09,2.91,2.21,2.21,0,0,0,.09-1.75,7,7,0,0,1,.91,1.52c1.89,4.25-2.29,8.69-2.29,8.69s7.09-5.55,2.61-10c0,0,3.28,1.46,3.28,4.67a4.17,4.17,0,0,1-1.62,3.2,3.2,3.2,0,0,0,1.72-1.38,3.34,3.34,0,0,1-.76,2.16c-4.13,5.74,1.8,2.93,2.81-.58a6.05,6.05,0,0,1-.6,3.67c-.61,1.18-1.63,2.08-4.07,2.69a4.26,4.26,0,0,0,2.26-.27,7.64,7.64,0,0,1-2.91,2.33c-5.73,3,2.91.77,5.28-2.87h0a12.13,12.13,0,0,1-3.12,5.43,8.16,8.16,0,0,1-5.59,1.83,7.63,7.63,0,0,0,2.84.16,12.67,12.67,0,0,1-4.6,1.27,12.39,12.39,0,0,1-1.86,4.79s.8-3.3-.38-5.24C102.59,105.76,98.7,101.22,98.88,98.57Z" transform="translate(-84.36 -82.85)"/><path class="cls-4" d="M101.24,109.3a14,14,0,0,1-.83,3.94,14,14,0,0,1-.83-3.94,6.9,6.9,0,0,1,.83-3.12A6.9,6.9,0,0,1,101.24,109.3Z" transform="translate(-84.36 -82.85)"/><path class="cls-5" d="M100.41,107.3a7,7,0,0,1,.8,2.57,5.44,5.44,0,0,0,0-.57,6.9,6.9,0,0,0-.83-3.12,6.9,6.9,0,0,0-.83,3.12c0,.19,0,.38,0,.57A7.12,7.12,0,0,1,100.41,107.3Z" transform="translate(-84.36 -82.85)"/><path class="cls-6" d="M101.71,104.73c2.48-2.67,3-4.84,1.9-7.59A3.72,3.72,0,0,1,103,96c-.07-.17-.91-.73-.86-.9,0,0,.09,0,.1-.07s-2.67.76-3.24,3c.23.55.48,1.11.71,1.68a3.28,3.28,0,0,1,.11,2A29.46,29.46,0,0,0,101.71,104.73Z" transform="translate(-84.36 -82.85)"/><path class="cls-7" d="M99.49,99.15c-1.39-3.38-3.1-6.31-.72-8.93A3,3,0,0,1,97.08,88s.46.84,2.63.49c3-.49,4.49,1.48,4.49,2.6,0,0-1.71-.81-2.62.45-.69.94.87,3.1,1.43,4.23,1.64,3.32,1.22,5.74-1.88,8.88-3.81,3.85-1,10.53-1,10.53s-5.28-4.69-2.73-9.3C99,103,100.2,100.88,99.49,99.15Z" transform="translate(-84.36 -82.85)"/><path class="cls-8" d="M101.93,98.57c-.19-2.69-4.07-3.59-4.07-3.59s0,0,0,.07a2.35,2.35,0,0,1,.06.54,1.56,1.56,0,1,1-3.05,0,2.13,2.13,0,0,1,.55-1.46l-.62-.55C91,90.47,92.36,83.69,96,82.86a5.17,5.17,0,0,0-3.75,1.36,4.09,4.09,0,0,0-1.09,2.91,2.25,2.25,0,0,1-.1-1.75,7.35,7.35,0,0,0-.9,1.52c-1.89,4.25,2.29,8.69,2.29,8.69s-7.09-5.55-2.61-10c0,0-3.29,1.46-3.29,4.67a4.16,4.16,0,0,0,1.63,3.2,3.2,3.2,0,0,1-1.72-1.38,3.37,3.37,0,0,0,.75,2.16c4.13,5.74-1.79,2.93-2.81-.58a6.14,6.14,0,0,0,.6,3.67c.62,1.18,1.63,2.08,4.08,2.69a4.29,4.29,0,0,1-2.27-.27,7.68,7.68,0,0,0,2.92,2.33c5.73,3-2.91.77-5.28-2.87h0a11.9,11.9,0,0,0,3.12,5.43,8.12,8.12,0,0,0,5.59,1.83,7.63,7.63,0,0,1-2.84.16,12.61,12.61,0,0,0,4.59,1.27,12.39,12.39,0,0,0,1.86,4.79s-.79-3.3.39-5.24C98.23,105.76,102.12,101.22,101.93,98.57Z" transform="translate(-84.36 -82.85)"/><path class="cls-9" d="M88.41,99.86h.08l-.63-.18C88,99.74,88.22,99.8,88.41,99.86Z" transform="translate(-84.36 -82.85)"/><path class="cls-10" d="M101.93,98.57c-.19-2.69-4.07-3.59-4.07-3.59v0c1.06.44,3.12,1.56,3.26,3.56.19,2.65-3.19,7-4.24,8.71-1.18,1.93-.09,5.44-.09,5.44s-.79-3.3.39-5.24C98.23,105.76,102.12,101.22,101.93,98.57Z" transform="translate(-84.36 -82.85)"/><path class="cls-11" d="M90.1,103.13l-.16-.06h0l-.17-.07h0l-.18-.07h0l-.35-.15h0l-.37-.18h0l-.18-.09h0l-.18-.09h0l-.17-.09h0l-.15-.08h0l0,0h0l-.15-.08h0l-.06,0h0l-.39-.23h0c-.17-.11-.34-.21-.51-.33h0l-.07,0-.12-.09h0l-.09-.06h0l-.1-.07h0l-.09-.07h0l-.1-.07h0l-.09-.07h0l-.1-.07h0l-.06,0a2.17,2.17,0,0,1-.29-.24h0l-.09-.07h0l-.08-.06h0l-.09-.09h0l-.08-.07h0l0,0-.14-.13h0l-.08-.09h0q-.2-.19-.36-.39l-.08-.1h0l-.12-.15v0h0a.21.21,0,0,1,0-.06h0l-.12-.17h0v0h0v.22l0,0v0l0,.08,0,0v.06l0,0v0l0,.06h0c.07.2.15.43.26.69a15.88,15.88,0,0,0,5.17,2.49Z" transform="translate(-84.36 -82.85)"/><path class="cls-12" d="M94.2,93.38c.22.18.42.37.62.55a2.12,2.12,0,0,0-.55,1.45,2.35,2.35,0,0,0,1.88,2.08h0a1.79,1.79,0,0,1-1.25-1.72s0-.1,0-.14a2.13,2.13,0,0,1,.55-1.46l-.62-.55C91,90.47,92.36,83.69,96,82.86a4.39,4.39,0,0,0-1.74.52C91.34,85,90.76,90.54,94.2,93.38Z" transform="translate(-84.36 -82.85)"/><path class="cls-13" d="M92.47,95.59l-.16-.18Z" transform="translate(-84.36 -82.85)"/><path class="cls-14" d="M92.47,95.59a14.35,14.35,0,0,1-1.72-1.66h0l-.08-.08v0l-.14-.16,0,0-.07-.08,0,0a1.34,1.34,0,0,0-.11-.14l0,0-.06-.08-.05-.06L90,93.07,90,93l-.06-.07-.06-.09-.07-.1-.06-.09,0-.06a.83.83,0,0,1-.08-.12l-.05-.07a.61.61,0,0,0-.07-.1l0-.07-.09-.14,0,0-.07-.12,0,0-.09-.16,0,0-.06-.13,0-.05c0-.06,0-.11-.08-.16l0,0-.06-.14,0-.05a1.22,1.22,0,0,1-.07-.17l0,0a.88.88,0,0,1,0-.15l0,0-.06-.18v0a1,1,0,0,1,0-.16v0a1.21,1.21,0,0,1,0-.18v0s0-.1,0-.15v0a1.29,1.29,0,0,1,0-.19v0l0-.17v0a1.23,1.23,0,0,1,0-.19v0a.86.86,0,0,1,0-.16v0a1.15,1.15,0,0,1,0-.19V88.6c0-.06,0-.12,0-.19v0a1.11,1.11,0,0,1,0-.17v0l0-.19v0l0-.17v0a.82.82,0,0,1,.06-.19v0a1.34,1.34,0,0,1,.07-.18v0c0-.06,0-.12.08-.19l0,0,.09-.18v0A1.74,1.74,0,0,1,89,86.7l0,0a1.74,1.74,0,0,1,.11-.18h0l.14-.19,0,0,.15-.19h0l.17-.19,0,0a1.62,1.62,0,0,1,.18-.19,6.5,6.5,0,0,0-1.59,1.09C85.94,91.67,92.47,95.59,92.47,95.59Z" transform="translate(-84.36 -82.85)"/><g class="cls-15"><polygon class="cls-16" points="3.74 14.69 3.73 14.69 3.73 14.69 3.74 14.69"/><path class="cls-17" d="M84.42,93.7h0v1a6.91,6.91,0,0,0,3.56,2.81,6.43,6.43,0,0,1-3.5-3.81Z" transform="translate(-84.36 -82.85)"/></g><path class="cls-18" d="M110.71,103.13l.17-.06h0l.17-.07h0l.18-.07h0l.36-.15h0l.37-.18h0l.18-.09h0l.18-.09h0l.17-.09h0l.14-.08h0l.06,0h0l.14-.08h0l.06,0h0l.39-.23h0c.18-.11.35-.21.52-.33h0l.07,0,.12-.09h0l.09-.06h0l.1-.07h0l.09-.07h0l.1-.07h0l.09-.07h0l.09-.07h0l.06,0a3.15,3.15,0,0,0,.3-.24h0l.09-.07h0l.08-.06h0l.09-.09h0l.08-.07h0l0,0,.14-.13h0l.08-.09h0c.13-.13.24-.26.36-.39a.86.86,0,0,0,.07-.1h0a1.58,1.58,0,0,0,.12-.15l0,0h0l0-.06h0l.12-.17h0v0h0v.12l0,.06v.12l0,.08v0l0,.06v.08l0,.06h0c-.06.2-.15.43-.25.69a16,16,0,0,1-5.18,2.49Z" transform="translate(-84.36 -82.85)"/><path class="cls-19" d="M106.62,93.38c-.22.18-.43.37-.62.55a2.12,2.12,0,0,1,.54,1.45,2.34,2.34,0,0,1-1.88,2.08h0a1.79,1.79,0,0,0,1.26-1.72v-.14a2.12,2.12,0,0,0-.54-1.46c.19-.18.4-.36.62-.55,3.77-3.11,2.44-9.89-1.22-10.72a4.39,4.39,0,0,1,1.74.52C109.47,85,110.05,90.54,106.62,93.38Z" transform="translate(-84.36 -82.85)"/><path class="cls-20" d="M108.35,95.59a1.62,1.62,0,0,1,.16-.18Z" transform="translate(-84.36 -82.85)"/><path class="cls-21" d="M108.35,95.59a15.29,15.29,0,0,0,1.72-1.66h0l.07-.08,0,0a1.83,1.83,0,0,0,.13-.16l0,0,.07-.08,0,0a1.34,1.34,0,0,0,.11-.14l0,0,.06-.08,0-.06.08-.12.06-.07,0-.07.07-.09.06-.1.06-.09.05-.06.08-.12,0-.07a.61.61,0,0,0,.07-.1l0-.07.09-.14,0,0,.06-.12,0,0,.08-.16,0,0a.83.83,0,0,0,.07-.13l0-.05a.8.8,0,0,1,.08-.16v0l.07-.14,0-.05c0-.06,0-.11.07-.17v0l.06-.15,0,0,.06-.18v0s0-.11,0-.16v0c0-.06,0-.12.05-.18v0l0-.15v0a1.29,1.29,0,0,1,0-.19v0a1,1,0,0,0,0-.17v0c0-.06,0-.13,0-.19v0s0-.11,0-.16V88.8a1,1,0,0,0,0-.17v0a1.37,1.37,0,0,0,0-.19v0l0-.17v0a1.62,1.62,0,0,0,0-.19v0c0-.06,0-.11,0-.17v0l-.06-.19v0a1.34,1.34,0,0,1-.07-.18v0c0-.06,0-.12-.08-.19l0,0-.09-.18v0l-.11-.18,0,0-.11-.18h0l-.14-.19,0,0-.15-.19h0l-.17-.19,0,0-.18-.19a6.5,6.5,0,0,1,1.59,1.09C114.87,91.67,108.35,95.59,108.35,95.59Z" transform="translate(-84.36 -82.85)"/><g class="cls-15"><polygon class="cls-22" points="28.37 14.69 28.37 14.69 28.37 14.69 28.37 14.69"/><path class="cls-23" d="M116.39,93.7h0v1a7,7,0,0,1-3.56,2.81,6.39,6.39,0,0,0,3.49-3.81Z" transform="translate(-84.36 -82.85)"/></g></g></g></svg>