<svg id="Layer_1" data-name="Layer 1" xmlns="http://www.w3.org/2000/svg" viewBox="0 0 86.43 55.61"><rect x="30.1" y="48.54" width="47.6" height="7.07"/><path d="M136.94,79.57a5.23,5.23,0,0,0-1.48-1.41s-7.51-2.68-11.7-2.68c-6.38,0-11.15,2.49-16.47,5.64L100.7,85a.09.09,0,0,1-.07,0l-23.11-4a2,2,0,0,0-1.1.14l-3.67,1.67a1.16,1.16,0,0,0,0,2.11L88,92.37a.11.11,0,0,1,0,.19L72.16,102l-.24.14A13.75,13.75,0,0,1,62,103.6l-8.18-1.85a2.22,2.22,0,0,0-1.25,0,2.08,2.08,0,0,0-.71,3.5l9.18,8.42a5.05,5.05,0,0,0,5.31,1L71,112.83l26-10.93,36.67-15.44C137.2,85,138.61,82,136.94,79.57Z" transform="translate(-51.21 -75.48)"/><path d="M103.82,102.3l-10.88,4.55-2.06,9a.84.84,0,0,0,.81,1h1.07a4.26,4.26,0,0,0,3.62-2Z" transform="translate(-51.21 -75.48)"/></svg>