<svg xmlns="http://www.w3.org/2000/svg" xmlns:xlink="http://www.w3.org/1999/xlink" viewBox="0 0 173.29 32.29"><defs><style>.cls-1{isolation:isolate;}.cls-2{fill:url(#linear-gradient);}.cls-3{fill:url(#linear-gradient-2);}.cls-4{fill:url(#linear-gradient-3);}.cls-5{fill:url(#linear-gradient-4);}.cls-6{fill:url(#linear-gradient-5);}.cls-7{fill:url(#linear-gradient-6);}.cls-8{fill:url(#linear-gradient-7);}.cls-9{fill:url(#linear-gradient-8);}.cls-10{fill:url(#linear-gradient-9);}.cls-11,.cls-15,.cls-18{mix-blend-mode:screen;}.cls-11{fill:url(#linear-gradient-10);}.cls-12{fill:url(#linear-gradient-11);}.cls-13{fill:url(#linear-gradient-12);}.cls-14{fill:url(#linear-gradient-13);}.cls-16{fill:url(#linear-gradient-14);}.cls-17{fill:url(#linear-gradient-15);}.cls-18{fill:url(#linear-gradient-16);}.cls-19{fill:url(#linear-gradient-17);}.cls-20{fill:url(#linear-gradient-18);}.cls-21{fill:url(#linear-gradient-19);}.cls-22{fill:url(#linear-gradient-20);}.cls-23{fill:url(#linear-gradient-21);}.cls-24{fill:url(#linear-gradient-22);}.cls-25{fill:url(#linear-gradient-23);}.cls-26{fill:url(#linear-gradient-24);}.cls-27{fill:url(#linear-gradient-25);}.cls-28{fill:url(#linear-gradient-26);}.cls-29{fill:url(#linear-gradient-27);}.cls-30{fill:url(#linear-gradient-28);}.cls-31{fill:url(#linear-gradient-29);}.cls-32{fill:url(#linear-gradient-30);}.cls-33{fill:url(#linear-gradient-31);}.cls-34{fill:url(#linear-gradient-32);}.cls-35{fill:url(#linear-gradient-33);}.cls-36{fill:url(#linear-gradient-34);}.cls-37{fill:url(#linear-gradient-35);}</style><linearGradient id="linear-gradient" x1="29.79" y1="116.15" x2="29.79" y2="102.19" gradientUnits="userSpaceOnUse"><stop offset="0" stop-color="aqua"/><stop offset="1" stop-color="blue"/></linearGradient><linearGradient id="linear-gradient-2" x1="133.5" y1="113.72" x2="133.5" y2="83.85" gradientTransform="matrix(-1, 0, 0, 1, 170.17, 0)" gradientUnits="userSpaceOnUse"><stop offset="0" stop-color="blue"/><stop offset="1" stop-color="aqua"/></linearGradient><linearGradient id="linear-gradient-3" x1="33.88" y1="98.94" x2="27.81" y2="114.79" gradientTransform="matrix(1, 0, 0, 1, 0, 0)" xlink:href="#linear-gradient-2"/><linearGradient id="linear-gradient-4" x1="32.23" y1="102.63" x2="28.79" y2="111.6" xlink:href="#linear-gradient"/><linearGradient id="linear-gradient-5" x1="30.57" y1="105.73" x2="30.57" y2="95.98" gradientTransform="matrix(1, 0, 0, 1, 0, 0)" xlink:href="#linear-gradient-2"/><linearGradient id="linear-gradient-6" x1="29.47" y1="116.15" x2="29.47" y2="88.97" xlink:href="#linear-gradient"/><linearGradient id="linear-gradient-7" x1="22.15" y1="113.72" x2="22.15" y2="83.85" gradientTransform="matrix(1, 0, 0, 1, 0, 0)" xlink:href="#linear-gradient-2"/><linearGradient id="linear-gradient-8" x1="17.17" y1="100.86" x2="17.17" y2="100.67" gradientUnits="userSpaceOnUse"><stop offset="0" stop-color="#d30"/><stop offset="1" stop-color="#ffac32"/></linearGradient><linearGradient id="linear-gradient-9" x1="28.13" y1="113.72" x2="28.13" y2="95.98" gradientTransform="matrix(1, 0, 0, 1, 0, 0)" xlink:href="#linear-gradient-2"/><linearGradient id="linear-gradient-10" x1="11.98" y1="99.93" x2="20.01" y2="104.86" xlink:href="#linear-gradient"/><linearGradient id="linear-gradient-11" x1="23" y1="98.46" x2="23" y2="83.86" xlink:href="#linear-gradient"/><linearGradient id="linear-gradient-12" x1="21.39" y1="96.59" x2="21.39" y2="96.41" xlink:href="#linear-gradient"/><linearGradient id="linear-gradient-13" x1="19.12" y1="96.59" x2="19.12" y2="86.62" xlink:href="#linear-gradient"/><linearGradient id="linear-gradient-14" x1="3.97" y1="14.91" x2="-0.27" y2="10.91" gradientTransform="matrix(1, 0, 0, 1, 0, 0)" xlink:href="#linear-gradient-2"/><linearGradient id="linear-gradient-15" x1="17.18" y1="98.91" x2="12.95" y2="94.92" gradientTransform="matrix(1, 0, 0, 1, 0, 0)" xlink:href="#linear-gradient-2"/><linearGradient id="linear-gradient-16" x1="477.35" y1="99.93" x2="485.38" y2="104.86" gradientTransform="matrix(-1, 0, 0, 1, 524.19, 0)" xlink:href="#linear-gradient"/><linearGradient id="linear-gradient-17" x1="488.37" y1="98.46" x2="488.37" y2="83.86" gradientTransform="matrix(-1, 0, 0, 1, 524.19, 0)" xlink:href="#linear-gradient"/><linearGradient id="linear-gradient-18" x1="486.76" y1="96.59" x2="486.76" y2="96.41" gradientTransform="matrix(-1, 0, 0, 1, 524.19, 0)" xlink:href="#linear-gradient"/><linearGradient id="linear-gradient-19" x1="484.49" y1="96.59" x2="484.49" y2="86.62" gradientTransform="matrix(-1, 0, 0, 1, 524.19, 0)" xlink:href="#linear-gradient"/><linearGradient id="linear-gradient-20" x1="482.69" y1="98.77" x2="478.46" y2="94.77" gradientTransform="matrix(-1, 0, 0, 1, 510.83, -83.85)" xlink:href="#linear-gradient-2"/><linearGradient id="linear-gradient-21" x1="482.56" y1="98.91" x2="478.32" y2="94.92" gradientTransform="matrix(-1, 0, 0, 1, 524.19, 0)" xlink:href="#linear-gradient-2"/><linearGradient id="linear-gradient-22" x1="-75.91" y1="26" x2="271.74" y2="217.37" gradientUnits="userSpaceOnUse"><stop offset="0" stop-color="aqua"/><stop offset="0.99" stop-color="blue"/></linearGradient><linearGradient id="linear-gradient-23" x1="-73.48" y1="21.6" x2="274.16" y2="212.96" xlink:href="#linear-gradient-22"/><linearGradient id="linear-gradient-24" x1="-70.87" y1="16.86" x2="276.77" y2="208.22" xlink:href="#linear-gradient-22"/><linearGradient id="linear-gradient-25" x1="-68.41" y1="12.37" x2="279.24" y2="203.74" xlink:href="#linear-gradient-22"/><linearGradient id="linear-gradient-26" x1="-66.18" y1="8.33" x2="281.47" y2="199.69" xlink:href="#linear-gradient-22"/><linearGradient id="linear-gradient-27" x1="-63.23" y1="2.98" x2="284.41" y2="194.34" xlink:href="#linear-gradient-22"/><linearGradient id="linear-gradient-28" x1="-62.3" y1="1.28" x2="285.34" y2="192.65" xlink:href="#linear-gradient-22"/><linearGradient id="linear-gradient-29" x1="-58.6" y1="-5.44" x2="289.04" y2="185.93" xlink:href="#linear-gradient-22"/><linearGradient id="linear-gradient-30" x1="-55.71" y1="-10.69" x2="291.93" y2="180.68" xlink:href="#linear-gradient-22"/><linearGradient id="linear-gradient-31" x1="-54.99" y1="-12" x2="292.66" y2="179.36" xlink:href="#linear-gradient-22"/><linearGradient id="linear-gradient-32" x1="-53" y1="-15.62" x2="294.65" y2="175.75" xlink:href="#linear-gradient-22"/><linearGradient id="linear-gradient-33" x1="-51.72" y1="-17.95" x2="295.93" y2="173.42" xlink:href="#linear-gradient-22"/><linearGradient id="linear-gradient-34" x1="-50.88" y1="-19.46" x2="296.76" y2="171.91" xlink:href="#linear-gradient-22"/><linearGradient id="linear-gradient-35" x1="-48.07" y1="-24.57" x2="299.58" y2="166.79" xlink:href="#linear-gradient-22"/></defs><g class="cls-1"><g id="Layer_1" data-name="Layer 1"><path class="cls-2" d="M30.35,102.19h-4a10.55,10.55,0,0,0,2.43,3.43c3.8,3.85,1,10.53,1,10.53s5.28-4.69,2.72-9.3A20.25,20.25,0,0,1,30.35,102.19Z" transform="translate(-13.36 -83.85)"/><path class="cls-3" d="M27.88,99.57c.19-2.69,3.34-3.59,3.34-3.59s-.1,0-.1.07c-.05.17.79.73.86.9.3.76.59,1.53,1.43,1.53a1.74,1.74,0,0,0,1.52-1.89,2.12,2.12,0,0,0-.54-1.46c.19-.18.4-.36.62-.55,3.77-3.11,2.44-9.89-1.22-10.72a5.2,5.2,0,0,1,3.76,1.36,4.17,4.17,0,0,1,1.09,2.91,2.21,2.21,0,0,0,.09-1.75,7,7,0,0,1,.91,1.52c1.89,4.25-2.29,8.69-2.29,8.69S44.44,91,40,86.62c0,0,3.28,1.46,3.28,4.67a4.17,4.17,0,0,1-1.62,3.2,3.2,3.2,0,0,0,1.72-1.38,3.34,3.34,0,0,1-.76,2.16c-4.13,5.74,1.8,2.93,2.81-.58a6.05,6.05,0,0,1-.6,3.67c-.61,1.18-1.63,2.08-4.07,2.69a4.26,4.26,0,0,0,2.26-.27,7.64,7.64,0,0,1-2.91,2.33c-5.73,3,2.91.77,5.28-2.87h0a12.13,12.13,0,0,1-3.12,5.43,8.16,8.16,0,0,1-5.59,1.83,7.63,7.63,0,0,0,2.84.16,12.67,12.67,0,0,1-4.6,1.27A12.39,12.39,0,0,1,33,113.72s.8-3.3-.38-5.24C31.59,106.76,27.7,102.22,27.88,99.57Z" transform="translate(-13.36 -83.85)"/><path class="cls-4" d="M30.24,110.3a14,14,0,0,1-.83,3.94,14,14,0,0,1-.83-3.94,6.9,6.9,0,0,1,.83-3.12A6.9,6.9,0,0,1,30.24,110.3Z" transform="translate(-13.36 -83.85)"/><path class="cls-5" d="M29.41,108.3a7,7,0,0,1,.8,2.57,5.44,5.44,0,0,0,0-.57,6.9,6.9,0,0,0-.83-3.12,6.9,6.9,0,0,0-.83,3.12c0,.19,0,.38,0,.57A7.12,7.12,0,0,1,29.41,108.3Z" transform="translate(-13.36 -83.85)"/><path class="cls-6" d="M30.71,105.73c2.48-2.67,3-4.84,1.9-7.59A3.72,3.72,0,0,1,32,97c-.07-.17-.91-.73-.86-.9,0,0,.09,0,.1-.07s-2.67.76-3.24,3c.23.55.48,1.11.71,1.68a3.28,3.28,0,0,1,.11,2A29.46,29.46,0,0,0,30.71,105.73Z" transform="translate(-13.36 -83.85)"/><path class="cls-7" d="M28.49,100.15c-1.39-3.38-3.1-6.31-.72-8.93A3,3,0,0,1,26.08,89s.46.84,2.63.49c3-.49,4.49,1.48,4.49,2.6,0,0-1.71-.81-2.62.45-.69.94.87,3.1,1.43,4.23,1.64,3.32,1.22,5.74-1.88,8.88-3.81,3.85-1,10.53-1,10.53s-5.28-4.69-2.73-9.3C28,104,29.2,101.88,28.49,100.15Z" transform="translate(-13.36 -83.85)"/><path class="cls-8" d="M30.93,99.57C30.74,96.88,26.86,96,26.86,96s0,0,0,.07a2.35,2.35,0,0,1,.06.54,1.74,1.74,0,0,1-1.52,1.89,1.74,1.74,0,0,1-1.53-1.89,2.13,2.13,0,0,1,.55-1.46l-.62-.55C20,91.47,21.36,84.69,25,83.86a5.17,5.17,0,0,0-3.75,1.36,4.09,4.09,0,0,0-1.09,2.91,2.25,2.25,0,0,1-.1-1.75,7.35,7.35,0,0,0-.9,1.52c-1.89,4.25,2.29,8.69,2.29,8.69s-7.09-5.55-2.61-10c0,0-3.29,1.46-3.29,4.67a4.16,4.16,0,0,0,1.63,3.2,3.2,3.2,0,0,1-1.72-1.38,3.37,3.37,0,0,0,.75,2.16c4.13,5.74-1.79,2.93-2.81-.58a6.14,6.14,0,0,0,.6,3.67c.62,1.18,1.63,2.08,4.08,2.69a4.29,4.29,0,0,1-2.27-.27,7.68,7.68,0,0,0,2.92,2.33c5.73,3-2.91.77-5.28-2.87h0a11.9,11.9,0,0,0,3.12,5.43,8.12,8.12,0,0,0,5.59,1.83,7.63,7.63,0,0,1-2.84.16,12.61,12.61,0,0,0,4.59,1.27,12.39,12.39,0,0,0,1.86,4.79s-.79-3.3.39-5.24C27.23,106.76,31.12,102.22,30.93,99.57Z" transform="translate(-13.36 -83.85)"/><path class="cls-9" d="M17.41,100.86h.08l-.63-.18C17,100.74,17.22,100.8,17.41,100.86Z" transform="translate(-13.36 -83.85)"/><path class="cls-10" d="M30.93,99.57C30.74,96.88,26.86,96,26.86,96v0c1.06.44,3.12,1.56,3.26,3.56.19,2.65-3.19,7-4.24,8.71-1.18,1.93-.09,5.44-.09,5.44s-.79-3.3.39-5.24C27.23,106.76,31.12,102.22,30.93,99.57Z" transform="translate(-13.36 -83.85)"/><path class="cls-11" d="M19.1,104.13l-.16-.06h0l-.17-.07h0l-.18-.07h0l-.35-.15h0l-.37-.18h0l-.18-.09h0l-.18-.09h0l-.17-.09h0l-.15-.08h0l-.05,0h0l-.15-.08h0l-.06,0h0l-.39-.23h0c-.17-.11-.34-.21-.51-.33h0l-.07,0-.12-.09h0l-.09-.06h0l-.1-.07h0l-.09-.07h0l-.1-.07h0l-.09-.07h0l-.1-.07h0l-.06,0a2.17,2.17,0,0,1-.29-.24h0l-.09-.07h0l-.08-.06h0l-.09-.09h0l-.08-.07h0l0,0-.14-.13h0l-.08-.09h0q-.19-.19-.36-.39l-.08-.1h0l-.12-.15v0h0a.21.21,0,0,1,0-.06h0l-.12-.17h0v0h0v.22l0,0v0l0,.08,0,0v.06l0,0v0l0,.06h0c.07.2.15.43.26.69a15.88,15.88,0,0,0,5.17,2.49Z" transform="translate(-13.36 -83.85)"/><path class="cls-12" d="M23.2,94.38c.22.18.42.37.62.55a2.12,2.12,0,0,0-.55,1.45,2.35,2.35,0,0,0,1.88,2.08h0a1.79,1.79,0,0,1-1.25-1.72s0-.1,0-.14a2.13,2.13,0,0,1,.55-1.46l-.62-.55C20,91.47,21.36,84.69,25,83.86a4.39,4.39,0,0,0-1.74.52C20.34,86,19.76,91.54,23.2,94.38Z" transform="translate(-13.36 -83.85)"/><path class="cls-13" d="M21.47,96.59l-.16-.18Z" transform="translate(-13.36 -83.85)"/><path class="cls-14" d="M21.47,96.59a14.35,14.35,0,0,1-1.72-1.66h0l-.08-.08v0l-.14-.16,0,0-.07-.08,0,0a1.34,1.34,0,0,0-.11-.14l0,0-.06-.08-.05-.06L19,94.07,19,94l-.06-.07-.06-.09-.07-.1-.06-.09,0-.06a.83.83,0,0,1-.08-.12l-.05-.07a.61.61,0,0,0-.07-.1l0-.07-.09-.14,0,0-.07-.12,0,0-.09-.16,0,0-.06-.13,0-.05c0-.06-.05-.11-.08-.16l0,0-.06-.14,0-.05a1.22,1.22,0,0,1-.07-.17l0,0a.88.88,0,0,1-.05-.15l0,0-.06-.18v0a1,1,0,0,1-.05-.16v0a1.21,1.21,0,0,1,0-.18v0s0-.1,0-.15v0a1.29,1.29,0,0,1,0-.19v0l0-.17v0a1.23,1.23,0,0,1,0-.19v0a.86.86,0,0,1,0-.16v0a1.15,1.15,0,0,1,0-.19V89.6c0-.06,0-.12,0-.19v0a1.11,1.11,0,0,1,0-.17v0l0-.19v0l.05-.17v0a.82.82,0,0,1,.06-.19v0a1.34,1.34,0,0,1,.07-.18v0c0-.06,0-.12.08-.19l0,0,.09-.18v0A1.74,1.74,0,0,1,18,87.7l0,0a1.74,1.74,0,0,1,.11-.18h0l.14-.19,0,0,.15-.19h0l.17-.19,0,0a1.62,1.62,0,0,1,.18-.19,6.5,6.5,0,0,0-1.59,1.09C14.94,92.67,21.47,96.59,21.47,96.59Z" transform="translate(-13.36 -83.85)"/><g class="cls-15"><polygon class="cls-16" points="3.74 14.69 3.73 14.69 3.73 14.69 3.74 14.69"/><path class="cls-17" d="M13.42,94.7h0v1a6.91,6.91,0,0,0,3.56,2.81,6.43,6.43,0,0,1-3.5-3.81Z" transform="translate(-13.36 -83.85)"/></g><path class="cls-18" d="M39.71,104.13l.17-.06h0l.17-.07h0l.18-.07h0l.36-.15h0l.37-.18h0l.18-.09h0l.18-.09h0l.17-.09h0l.14-.08h0l.06,0h0l.14-.08h0l.06,0h0l.39-.23h0c.18-.11.35-.21.52-.33h0l.07,0,.12-.09h0l.09-.06h0l.1-.07h0l.09-.07h0l.1-.07h0l.09-.07h0l.09-.07h0l.06,0a3.15,3.15,0,0,0,.3-.24h0l.09-.07h0l.08-.06h0l.09-.09h0l.08-.07h0l0,0,.14-.13h0l.08-.09h0c.13-.13.24-.26.36-.39a.86.86,0,0,0,.07-.1h0a1.58,1.58,0,0,0,.12-.15l0,0h0l0-.06h0l.12-.17h0v0h0v.12l0,.06v.12l0,.08v0l0,.06v.08l0,.06h0c-.06.2-.15.43-.25.69a16,16,0,0,1-5.18,2.49Z" transform="translate(-13.36 -83.85)"/><path class="cls-19" d="M35.62,94.38c-.22.18-.43.37-.62.55a2.12,2.12,0,0,1,.54,1.45,2.34,2.34,0,0,1-1.88,2.08h0a1.79,1.79,0,0,0,1.26-1.72v-.14a2.12,2.12,0,0,0-.54-1.46c.19-.18.4-.36.62-.55,3.77-3.11,2.44-9.89-1.22-10.72a4.39,4.39,0,0,1,1.74.52C38.47,86,39.05,91.54,35.62,94.38Z" transform="translate(-13.36 -83.85)"/><path class="cls-20" d="M37.35,96.59a1.62,1.62,0,0,1,.16-.18Z" transform="translate(-13.36 -83.85)"/><path class="cls-21" d="M37.35,96.59a15.29,15.29,0,0,0,1.72-1.66h0l.07-.08,0,0a1.83,1.83,0,0,0,.13-.16l0,0,.07-.08,0,0a1.34,1.34,0,0,0,.11-.14l0,0,.06-.08,0-.06.08-.12.06-.07.05-.07.07-.09.06-.1.06-.09,0-.06.08-.12,0-.07a.61.61,0,0,0,.07-.1l0-.07.09-.14,0,0,.06-.12,0,0,.08-.16,0,0a.83.83,0,0,0,.07-.13l0-.05a.8.8,0,0,1,.08-.16v0l.07-.14,0-.05c0-.06,0-.11.07-.17v0l.06-.15,0,0,.06-.18v0s0-.11,0-.16v0c0-.06,0-.12,0-.18v0l0-.15v0a1.29,1.29,0,0,1,0-.19v0a1,1,0,0,0,0-.17v0c0-.06,0-.13,0-.19v0s0-.11,0-.16V89.8a1,1,0,0,0,0-.17v0a1.37,1.37,0,0,0,0-.19v0l0-.17v0a1.62,1.62,0,0,0,0-.19v0c0-.06,0-.11,0-.17v0l-.06-.19v0a1.34,1.34,0,0,1-.07-.18v0c0-.06-.05-.12-.08-.19l0,0-.09-.18v0l-.11-.18,0,0-.11-.18h0l-.14-.19,0,0L40.35,87h0l-.17-.19,0,0L40,86.62a6.5,6.5,0,0,1,1.59,1.09C43.87,92.67,37.35,96.59,37.35,96.59Z" transform="translate(-13.36 -83.85)"/><g class="cls-15"><polygon class="cls-22" points="28.37 14.69 28.37 14.69 28.37 14.69 28.37 14.69"/><path class="cls-23" d="M45.39,94.7h0v1A7,7,0,0,1,41.9,98.5a6.39,6.39,0,0,0,3.49-3.81Z" transform="translate(-13.36 -83.85)"/></g><path class="cls-24" d="M64.3,95.55A3.9,3.9,0,0,1,66,97a4.08,4.08,0,0,1-1.74,6,6.41,6.41,0,0,1-2.66.51h-2v3H56.49V95h5.15A6.25,6.25,0,0,1,64.3,95.55Zm-1.37,5a1.8,1.8,0,0,0,0-2.49,2.15,2.15,0,0,0-1.48-.45H59.68V101h1.77A2.2,2.2,0,0,0,62.93,100.53Z" transform="translate(-13.36 -83.85)"/><path class="cls-25" d="M76.51,98.46a4,4,0,0,1,1,3v5.09H74.44V102c0-1.22-.47-1.83-1.43-1.83a1.62,1.62,0,0,0-1.26.53,2.28,2.28,0,0,0-.48,1.58v4.3H68.21V94.34h3.06v4.11a3.5,3.5,0,0,1,1.18-.73,4.28,4.28,0,0,1,1.45-.24A3.56,3.56,0,0,1,76.51,98.46Z" transform="translate(-13.36 -83.85)"/><path class="cls-26" d="M81.4,106.09a4.38,4.38,0,0,1-1.76-1.65,4.71,4.71,0,0,1,0-4.74,4.39,4.39,0,0,1,1.75-1.64,5.85,5.85,0,0,1,5.08,0,4.33,4.33,0,0,1,1.76,1.63,4.47,4.47,0,0,1,.63,2.37,4.53,4.53,0,0,1-.63,2.38,4.38,4.38,0,0,1-1.76,1.65,5.74,5.74,0,0,1-5.07,0Zm3.85-2.46a2.26,2.26,0,0,0,.51-1.57,2.18,2.18,0,0,0-.51-1.54,1.84,1.84,0,0,0-2.64,0,2.14,2.14,0,0,0-.52,1.54,2.22,2.22,0,0,0,.52,1.57,1.81,1.81,0,0,0,2.64,0Z" transform="translate(-13.36 -83.85)"/><path class="cls-27" d="M99.15,102.87H92.8a1.83,1.83,0,0,0,.75,1.06,2.5,2.5,0,0,0,1.39.37,3,3,0,0,0,1.09-.18,3.18,3.18,0,0,0,.93-.6l1.61,1.71a4.68,4.68,0,0,1-3.72,1.45,5.89,5.89,0,0,1-2.69-.59,4.36,4.36,0,0,1-1.8-1.65,4.81,4.81,0,0,1,0-4.74,4.33,4.33,0,0,1,1.71-1.63,5.4,5.4,0,0,1,4.83,0,4.15,4.15,0,0,1,1.68,1.59,4.71,4.71,0,0,1,.62,2.48S99.18,102.37,99.15,102.87Zm-5.79-2.76a1.85,1.85,0,0,0-.61,1.11h3.58a1.85,1.85,0,0,0-.61-1.11,1.9,1.9,0,0,0-2.36,0Z" transform="translate(-13.36 -83.85)"/><path class="cls-28" d="M108.91,98.46a4,4,0,0,1,1,3v5.09h-3.06V102c0-1.22-.48-1.83-1.43-1.83a1.64,1.64,0,0,0-1.27.53,2.33,2.33,0,0,0-.47,1.58v4.3h-3.06v-8.9h2.91v1a3.43,3.43,0,0,1,1.23-.83,3.91,3.91,0,0,1,1.54-.29A3.57,3.57,0,0,1,108.91,98.46Z" transform="translate(-13.36 -83.85)"/><path class="cls-29" d="M112,96.16a1.62,1.62,0,0,1,0-2.36,1.93,1.93,0,0,1,1.36-.48,2,2,0,0,1,1.35.45,1.48,1.48,0,0,1,.51,1.16,1.61,1.61,0,0,1-.51,1.22,1.85,1.85,0,0,1-1.35.49A1.93,1.93,0,0,1,112,96.16Zm-.17,1.47h3.06v8.9h-3.06Z" transform="translate(-13.36 -83.85)"/><path class="cls-30" d="M122.4,106.53l-1.57-2.33-1.67,2.33h-3.32l3.32-4.45-3.22-4.45h3.45l1.54,2.25,1.61-2.25h3.24L122.56,102l3.33,4.57Z" transform="translate(-13.36 -83.85)"/><path class="cls-31" d="M139.21,104.3h-4.77l-.89,2.23H130.3l5-11.5h3.14l5,11.5h-3.32Zm-.94-2.4-1.45-3.68-1.45,3.68Z" transform="translate(-13.36 -83.85)"/><path class="cls-32" d="M144.34,96.16a1.62,1.62,0,0,1,0-2.36,1.93,1.93,0,0,1,1.36-.48,2,2,0,0,1,1.35.45,1.48,1.48,0,0,1,.51,1.16,1.61,1.61,0,0,1-.51,1.22,1.89,1.89,0,0,1-1.35.49A1.93,1.93,0,0,1,144.34,96.16Zm-.17,1.47h3.06v8.9h-3.06Z" transform="translate(-13.36 -83.85)"/><path class="cls-33" d="M153.34,97.78a4.57,4.57,0,0,1,1.71-.3v2.81a4.83,4.83,0,0,0-.69-.05,2.11,2.11,0,0,0-1.54.54,2.23,2.23,0,0,0-.55,1.66v4.09h-3.06v-8.9h2.91v1.06A2.87,2.87,0,0,1,153.34,97.78Z" transform="translate(-13.36 -83.85)"/><path class="cls-34" d="M156.31,94.34h3.06v12.19h-3.06Z" transform="translate(-13.36 -83.85)"/><path class="cls-35" d="M161.52,96.16a1.62,1.62,0,0,1,0-2.36,1.93,1.93,0,0,1,1.36-.48,2,2,0,0,1,1.35.45,1.48,1.48,0,0,1,.51,1.16,1.61,1.61,0,0,1-.51,1.22,1.87,1.87,0,0,1-1.35.49A1.93,1.93,0,0,1,161.52,96.16Zm-.17,1.47h3.06v8.9h-3.06Z" transform="translate(-13.36 -83.85)"/><path class="cls-36" d="M174.69,98.46a4,4,0,0,1,1,3v5.09h-3.06V102q0-1.83-1.44-1.83a1.63,1.63,0,0,0-1.26.53,2.28,2.28,0,0,0-.47,1.58v4.3h-3.06v-8.9h2.91v1a3.31,3.31,0,0,1,1.22-.83,4,4,0,0,1,1.55-.29A3.59,3.59,0,0,1,174.69,98.46Z" transform="translate(-13.36 -83.85)"/><path class="cls-37" d="M186.59,102.87h-6.34a1.83,1.83,0,0,0,.75,1.06,2.5,2.5,0,0,0,1.39.37,3,3,0,0,0,1.09-.18,3.14,3.14,0,0,0,.92-.6l1.61,1.71a4.64,4.64,0,0,1-3.71,1.45,5.89,5.89,0,0,1-2.69-.59,4.3,4.3,0,0,1-1.8-1.65,4.53,4.53,0,0,1-.64-2.38,4.59,4.59,0,0,1,.62-2.36,4.42,4.42,0,0,1,1.72-1.63,5.4,5.4,0,0,1,4.83,0A4.15,4.15,0,0,1,186,99.62a4.71,4.71,0,0,1,.62,2.48S186.63,102.37,186.59,102.87Zm-5.78-2.76a1.85,1.85,0,0,0-.61,1.11h3.58a1.85,1.85,0,0,0-.61-1.11,1.9,1.9,0,0,0-2.36,0Z" transform="translate(-13.36 -83.85)"/></g></g></svg>