<svg id="Layer_1" data-name="Layer 1" xmlns="http://www.w3.org/2000/svg" viewBox="0 0 78.42 57.18"><rect x="26.08" y="50.11" width="47.6" height="7.07"/><path d="M60.41,115.56a5.65,5.65,0,0,1,.05-2s3.42-7.21,6.38-10.17c4.52-4.51,9.65-6.12,15.64-7.65L89.9,93.8a.1.1,0,0,0,.06,0L103.5,74.6a1.85,1.85,0,0,1,.87-.67l3.78-1.42A1.16,1.16,0,0,1,109.66,74l-5.59,16a.11.11,0,0,0,.13.14l17.86-4.57.27-.06a13.78,13.78,0,0,0,8-5.94l4.47-7.09a2.28,2.28,0,0,1,.92-.85,2.08,2.08,0,0,1,3,2l-.54,12.45a5,5,0,0,1-3.08,4.43l-4.53,1.92L104.52,103l-36.84,15C64.06,119.57,61,118.45,60.41,115.56Z" transform="translate(-60.34 -71.43)"/><path d="M99.91,108.21l10.92-4.47,7.82,4.9a.85.85,0,0,1,.15,1.31l-.75.76a4.21,4.21,0,0,1-3.94,1.17Z" transform="translate(-60.34 -71.43)"/></svg>